HIERARCHY
ROOT root
{
	OFFSET 0.000000 0.000000 0.000000
	CHANNELS 6 Xposition Yposition Zposition Zrotation Yrotation Xrotation
	JOINT lhip
	{
		OFFSET 0.058581 -0.082280 -0.017664
		CHANNELS 3 Zrotation Yrotation Xrotation
		JOINT lknee
		{
			OFFSET 0.043451 -0.386469 0.008037
			CHANNELS 3 Zrotation Yrotation Xrotation
			JOINT lankle
			{
				OFFSET -0.014790 -0.426874 -0.037428
				CHANNELS 3 Zrotation Yrotation Xrotation
				JOINT ltoe
				{
					OFFSET 0.041054 -0.060286 0.122042
					CHANNELS 3 Zrotation Yrotation Xrotation
					End Site
					{
						OFFSET 0.000000 0.000000 0.000000
					}
				}
			}
		}
	}
	JOINT rhip
	{
		OFFSET -0.060310 -0.090513 -0.013543
		CHANNELS 3 Zrotation Yrotation Xrotation
		JOINT rknee
		{
			OFFSET -0.043257 -0.383688 -0.004843
			CHANNELS 3 Zrotation Yrotation Xrotation
			JOINT rankle
			{
				OFFSET 0.019056 -0.420046 -0.034562
				CHANNELS 3 Zrotation Yrotation Xrotation
				JOINT rtoe
				{
					OFFSET -0.034840 -0.062106 0.130323
					CHANNELS 3 Zrotation Yrotation Xrotation
					End Site
					{
						OFFSET 0.000000 0.000000 0.000000
					}
				}
			}
		}
	}
	JOINT lowerback
	{
		OFFSET 0.004439 0.124404 -0.038385
		CHANNELS 3 Zrotation Yrotation Xrotation
		JOINT upperback
		{
			OFFSET 0.004488 0.137956 0.026820
			CHANNELS 3 Zrotation Yrotation Xrotation
			JOINT chest
			{
				OFFSET -0.002265 0.056032 0.002855
				CHANNELS 3 Zrotation Yrotation Xrotation
				JOINT lowerneck
				{
					OFFSET -0.013390 0.211636 -0.033468
					CHANNELS 3 Zrotation Yrotation Xrotation
					JOINT upperneck
					{
						OFFSET 0.010113 0.088937 0.050410
						CHANNELS 3 Zrotation Yrotation Xrotation
						End Site
						{
							OFFSET 0.000000 0.000000 0.000000
						}
					}
				}
				JOINT lclavicle
				{
					OFFSET 0.071702 0.114000 -0.018898
					CHANNELS 3 Zrotation Yrotation Xrotation
					JOINT lshoulder
					{
						OFFSET 0.122921 0.045205 -0.019046
						CHANNELS 3 Zrotation Yrotation Xrotation
						JOINT lelbow
						{
							OFFSET 0.255332 -0.015649 -0.022946
							CHANNELS 3 Zrotation Yrotation Xrotation
							JOINT lwrist
							{
								OFFSET 0.265709 0.012698 -0.007375
								CHANNELS 3 Zrotation Yrotation Xrotation
								End Site
								{
									OFFSET 0.000000 0.000000 0.000000
								}
							}
						}
					}
				}
				JOINT rclavicle
				{
					OFFSET -0.082954 0.112472 -0.023707
					CHANNELS 3 Zrotation Yrotation Xrotation
					JOINT rshoulder
					{
						OFFSET -0.113228 0.046853 -0.008472
						CHANNELS 3 Zrotation Yrotation Xrotation
						JOINT relbow
						{
							OFFSET -0.260127 -0.014369 -0.031269
							CHANNELS 3 Zrotation Yrotation Xrotation
							JOINT rwrist
							{
								OFFSET -0.269108 0.006794 -0.006027
								CHANNELS 3 Zrotation Yrotation Xrotation
								End Site
								{
									OFFSET 0.000000 0.000000 0.000000
								}
							}
						}
					}
				}
			}
		}
	}
}
MOTION
Frames: 5
Frame Time: 0.033333
-0.885991 1.150098 0.921280 -2.174774 9.304805 92.588415 2.207866 4.741149 -7.993276 -1.411070 2.567814 83.293086 -1.328167 12.302639 -10.415963 0.000000 -0.000000 0.000000 0.527224 -0.608706 -26.464076 2.493526 -7.378711 45.690660 0.542333 -11.159799 -24.686531 0.000000 -0.000000 0.000000 9.980412 -10.145259 23.813554 -0.454911 1.788288 -2.162122 -0.857644 -2.024223 -0.837034 -12.169032 2.970405 -9.896022 -9.157398 22.034954 -4.682147 -30.913817 0.782465 4.485121 -43.841434 4.498777 9.931428 -10.849371 -55.599529 18.752763 11.728373 -11.817129 -13.912347 22.587802 5.986193 5.275619 26.521080 -5.886694 9.644028 8.593514 48.228820 3.451305 -2.977062 21.754546 -13.513293 
-0.884918 1.080511 0.926958 -2.769012 8.545110 92.074644 2.865405 4.162237 -19.390489 -0.414683 5.682026 86.915586 0.173732 11.285720 -12.437883 0.000000 -0.000000 0.000000 0.875259 -1.976699 -19.124258 1.900365 -3.930826 42.755830 0.224089 -12.212937 -26.307692 0.000000 -0.000000 0.000000 9.018369 -5.968672 23.983693 -0.962349 2.106417 -2.550454 -0.746077 -1.026029 -1.083844 -11.460746 1.417645 -8.086728 -7.747571 21.686436 -4.021529 -31.048491 1.863685 5.351503 -41.768256 9.053365 8.779421 -16.116082 -53.914766 23.709784 11.655653 -11.769030 -12.729254 21.631857 6.906811 5.050436 27.914843 -4.612977 8.659166 7.891303 50.604293 2.948494 -6.343823 21.446172 -12.787034 
-0.879355 1.006201 0.944154 -2.523515 7.453642 93.006574 3.345006 3.067339 -29.232295 0.786850 9.123255 81.295081 0.564036 11.174063 -14.633106 0.000000 -0.000000 0.000000 -0.169825 -3.580890 -10.556761 1.808137 -0.867263 34.821488 2.277413 -11.797991 -24.943279 0.000000 -0.000000 0.000000 7.652835 -1.192968 21.423465 -1.029755 1.709157 -2.059613 -0.737412 -0.093559 -0.874347 -10.522162 0.478283 -6.998926 -7.030013 19.753347 -3.703305 -30.255269 3.864798 5.972702 -38.629733 13.266448 9.588743 -23.700463 -55.232854 32.027738 8.702265 -14.076134 -12.226706 21.269645 6.007960 4.401549 28.626894 -4.331822 8.575305 7.508254 54.695916 0.821075 -6.320945 21.364621 -15.744600 
-0.869852 0.927225 0.967799 -2.152180 6.006075 94.599529 3.810896 1.745280 -34.988548 0.796513 13.509419 66.951555 0.746459 10.500416 -14.286679 0.000000 -0.000000 0.000000 -2.581648 -5.128067 -2.408955 1.038531 1.550819 25.734560 6.085886 -9.064600 -17.543866 0.000000 -0.000000 0.000000 5.042691 3.858276 17.520577 -0.738151 1.547166 -1.501553 -0.244364 0.438245 -0.731389 -9.930963 0.489570 -5.426541 -6.069486 16.914242 -2.876289 -28.354935 6.321990 6.941728 -36.380970 16.102436 11.408151 -31.041877 -56.269090 40.832463 5.649549 -15.952483 -12.749191 20.859799 3.819569 4.356952 29.490750 -4.551850 9.793974 8.198790 58.418091 0.335765 -8.831989 21.726481 -22.983836 
-0.857202 0.844826 0.992516 -1.688619 5.232414 96.094301 4.582205 0.064013 -35.924721 -2.258762 16.602651 45.191428 0.577400 10.887350 -11.474608 0.000000 -0.000000 0.000000 -5.311901 -5.664758 4.277962 0.570500 1.161783 18.363619 10.755431 -6.134651 -4.626533 0.000000 -0.000000 0.000000 2.469978 7.810379 13.519558 -0.466994 1.951925 -1.351902 0.594275 1.002626 -0.435066 -10.009047 0.472575 -3.164229 -5.199389 14.296667 -3.055169 -25.702778 8.263088 8.374253 -35.546213 18.318900 13.181341 -37.377659 -57.241421 46.727394 3.708069 -17.349722 -14.292857 19.838927 1.788842 4.825674 31.028150 -5.253519 10.977222 8.393634 61.432219 -0.435190 -10.134293 22.589483 -27.776434 
